<mxfile host="app.diagrams.net" agent="Mozilla/5.0 (X11; Ubuntu; Linux x86_64; rv:138.0) Gecko/20100101 Firefox/138.0" version="27.0.4">
  <diagram name="第 1 页" id="0rYRHhfyeYts_oOujGHw">
    <mxGraphModel dx="1996" dy="1720" grid="0" gridSize="10" guides="1" tooltips="1" connect="1" arrows="1" fold="1" page="0" pageScale="1" pageWidth="1169" pageHeight="827" background="none" math="0" shadow="0">
      <root>
        <mxCell id="0" />
        <mxCell id="1" parent="0" />
        <mxCell id="AgFiocdv4cvHruoCQxN_-11" style="edgeStyle=orthogonalEdgeStyle;rounded=0;orthogonalLoop=1;jettySize=auto;html=1;exitX=0.992;exitY=0.864;exitDx=0;exitDy=0;strokeWidth=2;exitPerimeter=0;strokeColor=#CC6600;entryX=0.286;entryY=0.02;entryDx=0;entryDy=0;entryPerimeter=0;" parent="1" source="o8w3iRxZlJbCGSuV9Qv7-1" target="AgFiocdv4cvHruoCQxN_-10" edge="1">
          <mxGeometry relative="1" as="geometry">
            <Array as="points">
              <mxPoint x="145" y="401" />
            </Array>
            <mxPoint x="145" y="507" as="targetPoint" />
          </mxGeometry>
        </mxCell>
        <mxCell id="o8w3iRxZlJbCGSuV9Qv7-1" value="&lt;font face=&quot;Comic Sans MS&quot; size=&quot;1&quot;&gt;&lt;b style=&quot;font-size: 17px;&quot;&gt;PC&lt;/b&gt;&lt;/font&gt;" style="rounded=1;whiteSpace=wrap;html=1;absoluteArcSize=1;arcSize=14;strokeWidth=2;fillColor=#f8cecc;gradientColor=#ea6b66;strokeColor=#b85450;" parent="1" vertex="1">
          <mxGeometry x="70" y="150" width="60" height="290" as="geometry" />
        </mxCell>
        <mxCell id="o8w3iRxZlJbCGSuV9Qv7-2" value="&lt;font face=&quot;Comic Sans MS&quot; size=&quot;1&quot;&gt;&lt;b style=&quot;font-size: 17px;&quot;&gt;IF/ID&lt;/b&gt;&lt;/font&gt;" style="rounded=1;whiteSpace=wrap;html=1;absoluteArcSize=1;arcSize=14;strokeWidth=2;fillColor=#f8cecc;gradientColor=#ea6b66;strokeColor=#b85450;" parent="1" vertex="1">
          <mxGeometry x="350" y="150" width="60" height="290" as="geometry" />
        </mxCell>
        <mxCell id="o8w3iRxZlJbCGSuV9Qv7-3" value="&lt;font face=&quot;Comic Sans MS&quot; size=&quot;1&quot;&gt;&lt;b style=&quot;font-size: 17px;&quot;&gt;ID/EX&lt;/b&gt;&lt;/font&gt;" style="rounded=1;whiteSpace=wrap;html=1;absoluteArcSize=1;arcSize=14;strokeWidth=2;fillColor=#f8cecc;gradientColor=#ea6b66;strokeColor=#b85450;" parent="1" vertex="1">
          <mxGeometry x="630" y="150" width="60" height="290" as="geometry" />
        </mxCell>
        <mxCell id="o8w3iRxZlJbCGSuV9Qv7-4" value="&lt;b style=&quot;&quot;&gt;&lt;font face=&quot;Comic Sans MS&quot; style=&quot;font-size: 17px;&quot;&gt;EX/ME&lt;/font&gt;&lt;/b&gt;" style="rounded=1;whiteSpace=wrap;html=1;absoluteArcSize=1;arcSize=14;strokeWidth=2;gradientColor=#ea6b66;fillColor=#f8cecc;strokeColor=#b85450;" parent="1" vertex="1">
          <mxGeometry x="909" y="150" width="61" height="290" as="geometry" />
        </mxCell>
        <mxCell id="AgFiocdv4cvHruoCQxN_-81" style="edgeStyle=orthogonalEdgeStyle;rounded=0;orthogonalLoop=1;jettySize=auto;html=1;exitX=1;exitY=0.5;exitDx=0;exitDy=0;entryX=0.5;entryY=1;entryDx=0;entryDy=0;strokeWidth=2;shape=flexArrow;" parent="1" source="o8w3iRxZlJbCGSuV9Qv7-5" target="AgFiocdv4cvHruoCQxN_-58" edge="1">
          <mxGeometry relative="1" as="geometry">
            <Array as="points">
              <mxPoint x="1280" y="295" />
              <mxPoint x="1280" y="463" />
              <mxPoint x="520" y="463" />
            </Array>
          </mxGeometry>
        </mxCell>
        <mxCell id="o8w3iRxZlJbCGSuV9Qv7-5" value="&lt;b style=&quot;&quot;&gt;&lt;font style=&quot;font-size: 16px;&quot; face=&quot;Comic Sans MS&quot;&gt;ME/WB&lt;/font&gt;&lt;/b&gt;" style="rounded=1;whiteSpace=wrap;html=1;absoluteArcSize=1;arcSize=14;strokeWidth=2;fillColor=#f8cecc;gradientColor=#ea6b66;strokeColor=#b85450;" parent="1" vertex="1">
          <mxGeometry x="1190" y="150" width="60" height="290" as="geometry" />
        </mxCell>
        <mxCell id="AgFiocdv4cvHruoCQxN_-3" value="&lt;font size=&quot;1&quot; face=&quot;Comic Sans MS&quot; style=&quot;&quot;&gt;&lt;b style=&quot;font-size: 17px;&quot;&gt;ALU&lt;/b&gt;&lt;/font&gt;" style="verticalLabelPosition=middle;verticalAlign=middle;html=1;shape=trapezoid;perimeter=trapezoidPerimeter;whiteSpace=wrap;size=0.23;arcSize=10;flipV=1;labelPosition=center;align=center;strokeWidth=2;direction=south;fillColor=#fa6800;fontColor=#000000;strokeColor=#C73500;" parent="1" vertex="1">
          <mxGeometry x="810" y="150" width="60" height="130" as="geometry" />
        </mxCell>
        <mxCell id="AgFiocdv4cvHruoCQxN_-7" value="&lt;b&gt;&lt;font style=&quot;font-size: 18px;&quot;&gt;Instruction Fetch&lt;/font&gt;&lt;/b&gt;" style="text;html=1;align=center;verticalAlign=middle;whiteSpace=wrap;rounded=0;fontFamily=Comic Sans MS;" parent="1" vertex="1">
          <mxGeometry x="180" y="59" width="100" height="30" as="geometry" />
        </mxCell>
        <mxCell id="AgFiocdv4cvHruoCQxN_-8" value="&lt;b&gt;&lt;font style=&quot;font-size: 18px;&quot;&gt;Instruction Decode&lt;/font&gt;&lt;/b&gt;" style="text;html=1;align=center;verticalAlign=middle;whiteSpace=wrap;rounded=0;fontFamily=Comic Sans MS;" parent="1" vertex="1">
          <mxGeometry x="470" y="59" width="100" height="30" as="geometry" />
        </mxCell>
        <mxCell id="AgFiocdv4cvHruoCQxN_-12" style="edgeStyle=orthogonalEdgeStyle;rounded=0;orthogonalLoop=1;jettySize=auto;html=1;exitX=0;exitY=0.5;exitDx=0;exitDy=0;entryX=-0.008;entryY=0.862;entryDx=0;entryDy=0;strokeWidth=2;entryPerimeter=0;strokeColor=#CC6600;" parent="1" source="AgFiocdv4cvHruoCQxN_-10" target="o8w3iRxZlJbCGSuV9Qv7-1" edge="1">
          <mxGeometry relative="1" as="geometry">
            <Array as="points">
              <mxPoint x="98" y="492" />
              <mxPoint x="53" y="492" />
              <mxPoint x="53" y="400" />
            </Array>
          </mxGeometry>
        </mxCell>
        <mxCell id="AgFiocdv4cvHruoCQxN_-10" value="&lt;b&gt;&lt;font face=&quot;Comic Sans MS&quot; style=&quot;font-size: 17px;&quot;&gt;Branch Predictor&lt;/font&gt;&lt;/b&gt;" style="rounded=0;whiteSpace=wrap;html=1;strokeWidth=2;fillColor=#EA6B66;" parent="1" vertex="1">
          <mxGeometry x="97.5" y="464" width="200" height="50" as="geometry" />
        </mxCell>
        <mxCell id="AgFiocdv4cvHruoCQxN_-32" style="edgeStyle=orthogonalEdgeStyle;rounded=0;orthogonalLoop=1;jettySize=auto;html=1;exitX=0.5;exitY=0;exitDx=0;exitDy=0;entryX=0.75;entryY=0;entryDx=0;entryDy=0;strokeWidth=2;strokeColor=#CC6600;" parent="1" source="AgFiocdv4cvHruoCQxN_-13" target="AgFiocdv4cvHruoCQxN_-10" edge="1">
          <mxGeometry relative="1" as="geometry">
            <Array as="points">
              <mxPoint x="888" y="375" />
              <mxPoint x="888" y="445" />
              <mxPoint x="238" y="445" />
              <mxPoint x="238" y="464" />
            </Array>
          </mxGeometry>
        </mxCell>
        <mxCell id="AgFiocdv4cvHruoCQxN_-13" value="&lt;b&gt;&lt;font face=&quot;Comic Sans MS&quot; style=&quot;font-size: 17px;&quot;&gt;BRU&lt;/font&gt;&lt;/b&gt;" style="verticalLabelPosition=middle;verticalAlign=middle;html=1;shape=trapezoid;perimeter=trapezoidPerimeter;whiteSpace=wrap;size=0.23;arcSize=10;flipV=1;labelPosition=center;align=center;strokeWidth=2;direction=south;fillColor=#fa6800;fontColor=#000000;strokeColor=#C73500;" parent="1" vertex="1">
          <mxGeometry x="810" y="310" width="60" height="130" as="geometry" />
        </mxCell>
        <mxCell id="AgFiocdv4cvHruoCQxN_-46" value="" style="edgeStyle=orthogonalEdgeStyle;rounded=0;orthogonalLoop=1;jettySize=auto;html=1;strokeWidth=2;shape=flexArrow;fillColor=none;" parent="1" edge="1">
          <mxGeometry relative="1" as="geometry">
            <mxPoint x="349" y="209.0588235294117" as="targetPoint" />
            <Array as="points">
              <mxPoint x="296" y="204" />
              <mxPoint x="291" y="204" />
              <mxPoint x="291" y="209" />
            </Array>
            <mxPoint x="296" y="214" as="sourcePoint" />
          </mxGeometry>
        </mxCell>
        <mxCell id="AgFiocdv4cvHruoCQxN_-54" style="edgeStyle=orthogonalEdgeStyle;rounded=0;orthogonalLoop=1;jettySize=auto;html=1;exitX=0.75;exitY=1;exitDx=0;exitDy=0;entryX=0;entryY=0.25;entryDx=0;entryDy=0;strokeWidth=2;" parent="1" source="AgFiocdv4cvHruoCQxN_-18" target="AgFiocdv4cvHruoCQxN_-25" edge="1">
          <mxGeometry relative="1" as="geometry">
            <Array as="points">
              <mxPoint x="280" y="270" />
              <mxPoint x="280" y="410" />
              <mxPoint x="330" y="410" />
              <mxPoint x="330" y="501" />
            </Array>
          </mxGeometry>
        </mxCell>
        <mxCell id="AgFiocdv4cvHruoCQxN_-55" style="edgeStyle=orthogonalEdgeStyle;rounded=0;orthogonalLoop=1;jettySize=auto;html=1;entryX=-0.006;entryY=0.609;entryDx=0;entryDy=0;entryPerimeter=0;strokeWidth=2;startArrow=classic;startFill=1;endArrow=none;endFill=0;exitX=0;exitY=0.75;exitDx=0;exitDy=0;" parent="1" target="AgFiocdv4cvHruoCQxN_-25" edge="1" source="GLM_b-W1N-PHyf__kmSS-8">
          <mxGeometry relative="1" as="geometry">
            <mxPoint x="250" y="320" as="sourcePoint" />
            <Array as="points">
              <mxPoint x="250" y="270" />
              <mxPoint x="250" y="440" />
              <mxPoint x="300" y="440" />
              <mxPoint x="300" y="526" />
              <mxPoint x="464" y="526" />
            </Array>
          </mxGeometry>
        </mxCell>
        <mxCell id="AgFiocdv4cvHruoCQxN_-80" style="edgeStyle=orthogonalEdgeStyle;rounded=0;orthogonalLoop=1;jettySize=auto;html=1;exitX=0.25;exitY=1;exitDx=0;exitDy=0;entryX=0.5;entryY=0;entryDx=0;entryDy=0;strokeWidth=2;endArrow=block;endFill=1;" parent="1" source="AgFiocdv4cvHruoCQxN_-18" target="AgFiocdv4cvHruoCQxN_-39" edge="1">
          <mxGeometry relative="1" as="geometry">
            <Array as="points">
              <mxPoint x="200" y="270" />
              <mxPoint x="200" y="330" />
            </Array>
          </mxGeometry>
        </mxCell>
        <mxCell id="AgFiocdv4cvHruoCQxN_-18" value="&lt;b&gt;&lt;font face=&quot;Comic Sans MS&quot; style=&quot;font-size: 17px;&quot;&gt;Instruction Cache&lt;/font&gt;&lt;/b&gt;" style="rounded=0;whiteSpace=wrap;html=1;strokeWidth=2;fillColor=#b1ddf0;strokeColor=#10739e;" parent="1" vertex="1">
          <mxGeometry x="169" y="150" width="140" height="120" as="geometry" />
        </mxCell>
        <mxCell id="AgFiocdv4cvHruoCQxN_-34" style="edgeStyle=orthogonalEdgeStyle;rounded=0;orthogonalLoop=1;jettySize=auto;html=1;exitX=0.5;exitY=0;exitDx=0;exitDy=0;entryX=0.75;entryY=0;entryDx=0;entryDy=0;strokeWidth=2;strokeColor=#CC0000;" parent="1" source="AgFiocdv4cvHruoCQxN_-19" target="o8w3iRxZlJbCGSuV9Qv7-1" edge="1">
          <mxGeometry relative="1" as="geometry">
            <Array as="points">
              <mxPoint x="1080" y="120" />
              <mxPoint x="115" y="120" />
            </Array>
          </mxGeometry>
        </mxCell>
        <mxCell id="AgFiocdv4cvHruoCQxN_-38" style="edgeStyle=orthogonalEdgeStyle;rounded=0;orthogonalLoop=1;jettySize=auto;html=1;exitX=0.5;exitY=0;exitDx=0;exitDy=0;entryX=0.75;entryY=0;entryDx=0;entryDy=0;strokeWidth=2;strokeColor=#CC0000;" parent="1" source="AgFiocdv4cvHruoCQxN_-19" target="o8w3iRxZlJbCGSuV9Qv7-5" edge="1">
          <mxGeometry relative="1" as="geometry">
            <Array as="points">
              <mxPoint x="1080" y="120" />
              <mxPoint x="1235" y="120" />
            </Array>
          </mxGeometry>
        </mxCell>
        <mxCell id="AgFiocdv4cvHruoCQxN_-50" style="edgeStyle=orthogonalEdgeStyle;rounded=0;orthogonalLoop=1;jettySize=auto;html=1;exitX=0.25;exitY=1;exitDx=0;exitDy=0;entryX=1;entryY=0.25;entryDx=0;entryDy=0;strokeWidth=2;endArrow=block;endFill=1;" parent="1" source="AgFiocdv4cvHruoCQxN_-19" target="AgFiocdv4cvHruoCQxN_-25" edge="1">
          <mxGeometry relative="1" as="geometry" />
        </mxCell>
        <mxCell id="AgFiocdv4cvHruoCQxN_-19" value="&lt;b&gt;&lt;font face=&quot;Comic Sans MS&quot; style=&quot;font-size: 17px;&quot;&gt;Data Cache&lt;/font&gt;&lt;/b&gt;" style="rounded=0;whiteSpace=wrap;html=1;strokeWidth=2;fillColor=#b1ddf0;strokeColor=#10739e;" parent="1" vertex="1">
          <mxGeometry x="1010" y="190" width="140" height="220" as="geometry" />
        </mxCell>
        <mxCell id="AgFiocdv4cvHruoCQxN_-20" value="&lt;b&gt;&lt;font style=&quot;font-size: 18px;&quot;&gt;Execute&lt;/font&gt;&lt;/b&gt;" style="text;html=1;align=center;verticalAlign=middle;whiteSpace=wrap;rounded=0;fontFamily=Comic Sans MS;" parent="1" vertex="1">
          <mxGeometry x="740" y="59" width="100" height="30" as="geometry" />
        </mxCell>
        <mxCell id="AgFiocdv4cvHruoCQxN_-21" value="&lt;b&gt;&lt;font style=&quot;font-size: 18px;&quot;&gt;Memory Access&lt;/font&gt;&lt;/b&gt;" style="text;html=1;align=center;verticalAlign=middle;whiteSpace=wrap;rounded=0;fontFamily=Comic Sans MS;" parent="1" vertex="1">
          <mxGeometry x="1030" y="59" width="100" height="30" as="geometry" />
        </mxCell>
        <mxCell id="AgFiocdv4cvHruoCQxN_-24" value="&lt;b&gt;&lt;font style=&quot;font-size: 18px;&quot;&gt;Write Back&lt;/font&gt;&lt;/b&gt;" style="text;html=1;align=center;verticalAlign=middle;whiteSpace=wrap;rounded=0;fontFamily=Comic Sans MS;" parent="1" vertex="1">
          <mxGeometry x="1248" y="59" width="100" height="30" as="geometry" />
        </mxCell>
        <mxCell id="AgFiocdv4cvHruoCQxN_-51" style="edgeStyle=orthogonalEdgeStyle;rounded=0;orthogonalLoop=1;jettySize=auto;html=1;exitX=1;exitY=0.5;exitDx=0;exitDy=0;entryX=0.5;entryY=1;entryDx=0;entryDy=0;strokeWidth=2;endArrow=block;endFill=1;" parent="1" source="AgFiocdv4cvHruoCQxN_-25" target="AgFiocdv4cvHruoCQxN_-19" edge="1">
          <mxGeometry relative="1" as="geometry">
            <Array as="points">
              <mxPoint x="1080" y="521" />
            </Array>
          </mxGeometry>
        </mxCell>
        <mxCell id="AgFiocdv4cvHruoCQxN_-25" value="&lt;b&gt;&lt;font face=&quot;Comic Sans MS&quot; style=&quot;font-size: 21px;&quot;&gt;Memory&lt;/font&gt;&lt;/b&gt;" style="rounded=0;whiteSpace=wrap;html=1;strokeWidth=2;fillColor=#6a00ff;fontColor=#ffffff;strokeColor=#3700CC;" parent="1" vertex="1">
          <mxGeometry x="466" y="481" width="380" height="80" as="geometry" />
        </mxCell>
        <mxCell id="AgFiocdv4cvHruoCQxN_-35" value="" style="endArrow=classic;html=1;rounded=0;entryX=0.75;entryY=0;entryDx=0;entryDy=0;strokeWidth=2;strokeColor=#CC0000;" parent="1" target="o8w3iRxZlJbCGSuV9Qv7-2" edge="1">
          <mxGeometry width="50" height="50" relative="1" as="geometry">
            <mxPoint x="395" y="120" as="sourcePoint" />
            <mxPoint x="610" y="170" as="targetPoint" />
          </mxGeometry>
        </mxCell>
        <mxCell id="AgFiocdv4cvHruoCQxN_-36" value="" style="endArrow=classic;html=1;rounded=0;entryX=0.75;entryY=0;entryDx=0;entryDy=0;strokeWidth=2;strokeColor=#CC0000;" parent="1" target="o8w3iRxZlJbCGSuV9Qv7-3" edge="1">
          <mxGeometry width="50" height="50" relative="1" as="geometry">
            <mxPoint x="675" y="120" as="sourcePoint" />
            <mxPoint x="405" y="160" as="targetPoint" />
          </mxGeometry>
        </mxCell>
        <mxCell id="AgFiocdv4cvHruoCQxN_-37" value="" style="endArrow=classic;html=1;rounded=0;entryX=0.75;entryY=0;entryDx=0;entryDy=0;strokeWidth=2;strokeColor=#CC0000;" parent="1" target="o8w3iRxZlJbCGSuV9Qv7-4" edge="1">
          <mxGeometry width="50" height="50" relative="1" as="geometry">
            <mxPoint x="955" y="120" as="sourcePoint" />
            <mxPoint x="685" y="160" as="targetPoint" />
          </mxGeometry>
        </mxCell>
        <mxCell id="G1Qclrd5s6sE_gAB-Y7U-4" style="edgeStyle=orthogonalEdgeStyle;rounded=0;orthogonalLoop=1;jettySize=auto;html=1;exitX=0.5;exitY=1;exitDx=0;exitDy=0;strokeWidth=2;entryX=0.558;entryY=0.036;entryDx=0;entryDy=0;entryPerimeter=0;endArrow=block;endFill=1;" parent="1" source="AgFiocdv4cvHruoCQxN_-39" target="AgFiocdv4cvHruoCQxN_-10" edge="1">
          <mxGeometry relative="1" as="geometry">
            <mxPoint x="199.60000000000002" y="507.79999999999995" as="targetPoint" />
            <Array as="points">
              <mxPoint x="198" y="466" />
            </Array>
          </mxGeometry>
        </mxCell>
        <mxCell id="pdGqOBZtxA2Wi9RgU_dW-2" value="" style="edgeStyle=orthogonalEdgeStyle;rounded=0;orthogonalLoop=1;jettySize=auto;html=1;exitX=0.5;exitY=1;exitDx=0;exitDy=0;exitPerimeter=0;" edge="1" parent="1" source="AgFiocdv4cvHruoCQxN_-39" target="AgFiocdv4cvHruoCQxN_-10">
          <mxGeometry relative="1" as="geometry">
            <Array as="points">
              <mxPoint x="198" y="436" />
              <mxPoint x="198" y="436" />
            </Array>
          </mxGeometry>
        </mxCell>
        <mxCell id="AgFiocdv4cvHruoCQxN_-39" value="&lt;b style=&quot;font-size: 16px;&quot;&gt;&lt;font face=&quot;Comic Sans MS&quot; style=&quot;font-size: 16px;&quot;&gt;Pre&lt;br&gt;Decoder&lt;/font&gt;&lt;/b&gt;" style="rounded=1;whiteSpace=wrap;html=1;strokeWidth=2;fillColor=#E1D5E7;" parent="1" vertex="1">
          <mxGeometry x="158" y="338" width="79" height="70" as="geometry" />
        </mxCell>
        <mxCell id="AgFiocdv4cvHruoCQxN_-58" value="&lt;b style=&quot;font-size: 17px;&quot;&gt;&lt;font face=&quot;Comic Sans MS&quot; style=&quot;font-size: 17px;&quot;&gt;Register &lt;br&gt;File&lt;/font&gt;&lt;/b&gt;" style="rounded=0;whiteSpace=wrap;html=1;strokeWidth=2;fillColor=#008a00;fontColor=#ffffff;strokeColor=#005700;" parent="1" vertex="1">
          <mxGeometry x="450.5" y="235" width="140" height="120" as="geometry" />
        </mxCell>
        <mxCell id="AgFiocdv4cvHruoCQxN_-59" style="edgeStyle=orthogonalEdgeStyle;rounded=0;orthogonalLoop=1;jettySize=auto;html=1;entryX=0;entryY=0.5;entryDx=0;entryDy=0;strokeWidth=2;shape=flexArrow;" parent="1" edge="1">
          <mxGeometry relative="1" as="geometry">
            <mxPoint x="410" y="294.46999999999997" as="sourcePoint" />
            <mxPoint x="449" y="294.46999999999997" as="targetPoint" />
            <Array as="points">
              <mxPoint x="410" y="294.46999999999997" />
            </Array>
          </mxGeometry>
        </mxCell>
        <mxCell id="AgFiocdv4cvHruoCQxN_-60" style="edgeStyle=orthogonalEdgeStyle;rounded=0;orthogonalLoop=1;jettySize=auto;html=1;entryX=0;entryY=0.5;entryDx=0;entryDy=0;strokeWidth=2;shape=flexArrow;" parent="1" edge="1">
          <mxGeometry relative="1" as="geometry">
            <mxPoint x="591" y="294.46999999999997" as="sourcePoint" />
            <mxPoint x="630" y="294.46999999999997" as="targetPoint" />
            <Array as="points">
              <mxPoint x="591" y="294.46999999999997" />
            </Array>
          </mxGeometry>
        </mxCell>
        <mxCell id="AgFiocdv4cvHruoCQxN_-62" value="&lt;b style=&quot;font-size: 17px;&quot;&gt;&lt;font face=&quot;Comic Sans MS&quot; style=&quot;font-size: 17px;&quot;&gt;Control&lt;br&gt;Immediate Gen&lt;/font&gt;&lt;/b&gt;" style="rounded=1;whiteSpace=wrap;html=1;strokeWidth=2;fillColor=#60a917;fontColor=#ffffff;strokeColor=#2D7600;" parent="1" vertex="1">
          <mxGeometry x="450.25" y="160" width="139.5" height="61" as="geometry" />
        </mxCell>
        <mxCell id="AgFiocdv4cvHruoCQxN_-65" style="edgeStyle=orthogonalEdgeStyle;rounded=0;orthogonalLoop=1;jettySize=auto;html=1;entryX=0;entryY=0.5;entryDx=0;entryDy=0;strokeWidth=2;shape=flexArrow;" parent="1" edge="1">
          <mxGeometry relative="1" as="geometry">
            <mxPoint x="971" y="294.44" as="sourcePoint" />
            <mxPoint x="1010" y="294.44" as="targetPoint" />
            <Array as="points">
              <mxPoint x="971" y="294.44" />
            </Array>
          </mxGeometry>
        </mxCell>
        <mxCell id="AgFiocdv4cvHruoCQxN_-66" style="edgeStyle=orthogonalEdgeStyle;rounded=0;orthogonalLoop=1;jettySize=auto;html=1;entryX=0;entryY=0.5;entryDx=0;entryDy=0;strokeWidth=2;shape=flexArrow;" parent="1" edge="1">
          <mxGeometry relative="1" as="geometry">
            <mxPoint x="1151" y="294.44" as="sourcePoint" />
            <mxPoint x="1190" y="294.44" as="targetPoint" />
            <Array as="points">
              <mxPoint x="1151" y="294.44" />
            </Array>
          </mxGeometry>
        </mxCell>
        <mxCell id="AgFiocdv4cvHruoCQxN_-67" value="&lt;b&gt;&lt;font face=&quot;Comic Sans MS&quot; style=&quot;font-size: 13px;&quot;&gt;MUX&lt;/font&gt;&lt;/b&gt;" style="rounded=1;whiteSpace=wrap;html=1;strokeWidth=2;fillColor=#e3c800;fontColor=#000000;strokeColor=#B09500;" parent="1" vertex="1">
          <mxGeometry x="730" y="165" width="40" height="260" as="geometry" />
        </mxCell>
        <mxCell id="AgFiocdv4cvHruoCQxN_-71" style="edgeStyle=orthogonalEdgeStyle;rounded=0;orthogonalLoop=1;jettySize=auto;html=1;entryX=0;entryY=0.5;entryDx=0;entryDy=0;strokeWidth=2;shape=flexArrow;" parent="1" edge="1">
          <mxGeometry relative="1" as="geometry">
            <mxPoint x="770" y="374.38" as="sourcePoint" />
            <mxPoint x="809" y="374.38" as="targetPoint" />
            <Array as="points">
              <mxPoint x="770" y="374.38" />
            </Array>
          </mxGeometry>
        </mxCell>
        <mxCell id="AgFiocdv4cvHruoCQxN_-73" style="edgeStyle=orthogonalEdgeStyle;rounded=0;orthogonalLoop=1;jettySize=auto;html=1;entryX=0;entryY=0.5;entryDx=0;entryDy=0;strokeWidth=2;shape=flexArrow;" parent="1" edge="1">
          <mxGeometry relative="1" as="geometry">
            <mxPoint x="591" y="189.99999999999997" as="sourcePoint" />
            <mxPoint x="630" y="189.99999999999997" as="targetPoint" />
            <Array as="points">
              <mxPoint x="591" y="189.99999999999997" />
            </Array>
          </mxGeometry>
        </mxCell>
        <mxCell id="AgFiocdv4cvHruoCQxN_-74" style="edgeStyle=orthogonalEdgeStyle;rounded=0;orthogonalLoop=1;jettySize=auto;html=1;entryX=0;entryY=0.5;entryDx=0;entryDy=0;strokeWidth=2;shape=flexArrow;" parent="1" edge="1">
          <mxGeometry relative="1" as="geometry">
            <mxPoint x="770" y="214.57999999999998" as="sourcePoint" />
            <mxPoint x="809" y="214.57999999999998" as="targetPoint" />
            <Array as="points">
              <mxPoint x="770" y="214.57999999999998" />
            </Array>
          </mxGeometry>
        </mxCell>
        <mxCell id="AgFiocdv4cvHruoCQxN_-75" style="edgeStyle=orthogonalEdgeStyle;rounded=0;orthogonalLoop=1;jettySize=auto;html=1;entryX=0;entryY=0.5;entryDx=0;entryDy=0;strokeWidth=2;shape=flexArrow;" parent="1" edge="1">
          <mxGeometry relative="1" as="geometry">
            <mxPoint x="691" y="294.58" as="sourcePoint" />
            <mxPoint x="730" y="294.58" as="targetPoint" />
            <Array as="points">
              <mxPoint x="691" y="294.58" />
            </Array>
          </mxGeometry>
        </mxCell>
        <mxCell id="AgFiocdv4cvHruoCQxN_-76" style="edgeStyle=orthogonalEdgeStyle;rounded=0;orthogonalLoop=1;jettySize=auto;html=1;entryX=0;entryY=0.5;entryDx=0;entryDy=0;strokeWidth=2;shape=flexArrow;" parent="1" edge="1">
          <mxGeometry relative="1" as="geometry">
            <mxPoint x="870.5" y="214.57999999999998" as="sourcePoint" />
            <mxPoint x="909.5" y="214.57999999999998" as="targetPoint" />
            <Array as="points">
              <mxPoint x="870.5" y="214.57999999999998" />
            </Array>
          </mxGeometry>
        </mxCell>
        <mxCell id="AgFiocdv4cvHruoCQxN_-77" style="edgeStyle=orthogonalEdgeStyle;rounded=0;orthogonalLoop=1;jettySize=auto;html=1;entryX=0;entryY=0.5;entryDx=0;entryDy=0;strokeWidth=2;shape=flexArrow;" parent="1" edge="1">
          <mxGeometry relative="1" as="geometry">
            <mxPoint x="410" y="190.00000000000003" as="sourcePoint" />
            <mxPoint x="449" y="190.00000000000003" as="targetPoint" />
            <Array as="points">
              <mxPoint x="410" y="190.00000000000003" />
            </Array>
          </mxGeometry>
        </mxCell>
        <mxCell id="AgFiocdv4cvHruoCQxN_-89" value="&lt;font size=&quot;1&quot; color=&quot;#cc0000&quot; face=&quot;Comic Sans MS&quot;&gt;&lt;b style=&quot;font-size: 13px;&quot;&gt;Stall&lt;/b&gt;&lt;/font&gt;" style="text;html=1;align=center;verticalAlign=middle;whiteSpace=wrap;rounded=0;" parent="1" vertex="1">
          <mxGeometry x="1073" y="120" width="60" height="30" as="geometry" />
        </mxCell>
        <mxCell id="AgFiocdv4cvHruoCQxN_-90" value="&lt;font size=&quot;1&quot; face=&quot;Comic Sans MS&quot; style=&quot;&quot;&gt;&lt;b style=&quot;font-size: 18px;&quot;&gt;CPU Architecture（5-Stage Pipeline ）&lt;/b&gt;&lt;/font&gt;" style="text;html=1;align=center;verticalAlign=middle;whiteSpace=wrap;rounded=0;" parent="1" vertex="1">
          <mxGeometry x="470" y="-45" width="458" height="74" as="geometry" />
        </mxCell>
        <mxCell id="GLM_b-W1N-PHyf__kmSS-1" value="" style="triangle;whiteSpace=wrap;html=1;direction=north;strokeWidth=2;fillColor=#f8cecc;gradientColor=#ea6b66;strokeColor=#b85450;" parent="1" vertex="1">
          <mxGeometry x="80" y="410" width="40" height="30" as="geometry" />
        </mxCell>
        <mxCell id="GLM_b-W1N-PHyf__kmSS-2" value="" style="triangle;whiteSpace=wrap;html=1;direction=north;strokeWidth=2;fillColor=#f8cecc;gradientColor=#ea6b66;strokeColor=#b85450;" parent="1" vertex="1">
          <mxGeometry x="360" y="410" width="40" height="30" as="geometry" />
        </mxCell>
        <mxCell id="GLM_b-W1N-PHyf__kmSS-3" value="" style="triangle;whiteSpace=wrap;html=1;direction=north;strokeWidth=2;fillColor=#f8cecc;gradientColor=#ea6b66;strokeColor=#b85450;" parent="1" vertex="1">
          <mxGeometry x="640" y="410" width="40" height="30" as="geometry" />
        </mxCell>
        <mxCell id="GLM_b-W1N-PHyf__kmSS-4" value="" style="triangle;whiteSpace=wrap;html=1;direction=north;strokeWidth=2;fillColor=#f8cecc;gradientColor=#ea6b66;strokeColor=#b85450;" parent="1" vertex="1">
          <mxGeometry x="919.5" y="410" width="40" height="30" as="geometry" />
        </mxCell>
        <mxCell id="GLM_b-W1N-PHyf__kmSS-5" value="" style="triangle;whiteSpace=wrap;html=1;direction=north;strokeWidth=2;fillColor=#f8cecc;gradientColor=#ea6b66;strokeColor=#b85450;" parent="1" vertex="1">
          <mxGeometry x="1200" y="410" width="40" height="30" as="geometry" />
        </mxCell>
        <mxCell id="GLM_b-W1N-PHyf__kmSS-6" value="" style="triangle;whiteSpace=wrap;html=1;direction=west;strokeWidth=2;fillColor=#ea6b67;" parent="1" vertex="1">
          <mxGeometry x="273" y="471.5" width="22" height="35" as="geometry" />
        </mxCell>
        <mxCell id="GLM_b-W1N-PHyf__kmSS-7" value="" style="triangle;whiteSpace=wrap;html=1;direction=north;strokeWidth=2;fillColor=#008a00;fontColor=#ffffff;strokeColor=#005700;" parent="1" vertex="1">
          <mxGeometry x="504.5" y="331" width="31" height="24" as="geometry" />
        </mxCell>
        <mxCell id="GLM_b-W1N-PHyf__kmSS-8" value="" style="triangle;whiteSpace=wrap;html=1;direction=north;strokeWidth=2;fillColor=#b1ddf0;strokeColor=#10739e;" parent="1" vertex="1">
          <mxGeometry x="214.5" y="246" width="31" height="24" as="geometry" />
        </mxCell>
        <mxCell id="GLM_b-W1N-PHyf__kmSS-9" value="" style="triangle;whiteSpace=wrap;html=1;direction=north;strokeWidth=2;fillColor=#b1ddf0;strokeColor=#10739e;" parent="1" vertex="1">
          <mxGeometry x="1064.5" y="386" width="31" height="24" as="geometry" />
        </mxCell>
        <mxCell id="pdGqOBZtxA2Wi9RgU_dW-1" value="" style="shape=flexArrow;endArrow=classic;html=1;rounded=0;endWidth=28;endSize=4.62;strokeWidth=2;exitX=0.967;exitY=0.224;exitDx=0;exitDy=0;exitPerimeter=0;" edge="1" parent="1" source="o8w3iRxZlJbCGSuV9Qv7-1">
          <mxGeometry width="50" height="50" relative="1" as="geometry">
            <mxPoint x="127" y="217" as="sourcePoint" />
            <mxPoint x="169" y="214.5" as="targetPoint" />
          </mxGeometry>
        </mxCell>
        <mxCell id="pdGqOBZtxA2Wi9RgU_dW-3" value="" style="shape=flexArrow;endArrow=classic;startArrow=classic;html=1;rounded=0;strokeWidth=3;fillColor=#fff2cc;strokeColor=#d6b656;" edge="1" parent="1" target="AgFiocdv4cvHruoCQxN_-25">
          <mxGeometry width="100" height="100" relative="1" as="geometry">
            <mxPoint x="653" y="629" as="sourcePoint" />
            <mxPoint x="738" y="514" as="targetPoint" />
          </mxGeometry>
        </mxCell>
        <mxCell id="pdGqOBZtxA2Wi9RgU_dW-4" value="&lt;b&gt;&lt;font face=&quot;Comic Sans MS&quot; style=&quot;font-size: 21px;&quot;&gt;Devices &lt;br&gt;&lt;/font&gt;&lt;/b&gt;" style="rounded=1;whiteSpace=wrap;html=1;fillColor=#d80073;fontColor=#ffffff;strokeColor=#A50040;" vertex="1" parent="1">
          <mxGeometry x="507" y="628" width="305" height="60" as="geometry" />
        </mxCell>
      </root>
    </mxGraphModel>
  </diagram>
</mxfile>
